<svg
	xmlns="http://www.w3.org/2000/svg"
	xmlns:xlink="http://www.w3.org/1999/xlink"
	width="1.164cm" height="1.199cm">
	<path fill-rule="evenodd"  fill="rgb(255, 255, 255)"
		  d="M30.052,2.862 C27.696,0.431 24.247,-0.453 21.085,0.191 C20.492,0.302 19.920,0.473 19.365,0.699 C19.344,0.708 19.327,0.720 19.310,0.729 C18.795,0.941 18.300,1.203 17.823,1.513 C17.530,1.700 17.264,1.933 16.989,2.156 C16.832,2.283 16.661,2.384 16.513,2.522 C14.733,0.899 12.596,0.049 10.255,0.049 C6.501,0.049 2.800,2.352 1.051,5.779 C-0.492,8.802 -0.299,12.248 1.574,15.293 L1.768,15.617 C2.067,16.128 2.461,16.632 3.021,17.199 L16.427,34.001 L29.950,17.258 L29.936,17.249 C30.395,16.798 30.828,16.273 31.224,15.675 L31.451,15.306 L31.451,15.293 C33.192,12.462 33.460,9.287 32.245,6.420 C31.759,5.095 31.026,3.870 30.052,2.862 ZM5.037,15.487 L4.823,15.256 C4.565,14.990 4.356,14.743 4.184,14.506 L3.956,14.128 C2.421,11.815 2.206,9.295 3.362,7.035 C4.674,4.468 7.442,2.744 10.255,2.744 C12.270,2.744 14.096,3.636 15.534,5.324 L16.520,6.480 L17.498,5.321 C17.814,4.946 18.156,4.628 18.506,4.333 C18.586,4.267 18.662,4.198 18.744,4.135 C19.059,3.893 19.391,3.687 19.733,3.506 C19.829,3.453 19.926,3.396 20.030,3.350 C20.422,3.165 20.824,3.017 21.243,2.916 C21.265,2.909 21.289,2.902 21.311,2.895 C21.783,2.787 22.268,2.731 22.763,2.731 C25.574,2.731 28.346,4.460 29.659,7.033 C29.819,7.339 29.884,7.658 29.990,7.975 C30.175,8.636 30.302,9.317 30.302,10.012 C30.302,10.985 30.099,11.927 29.746,12.807 C29.552,13.250 29.358,13.695 29.070,14.128 L28.910,14.386 C28.905,14.390 28.899,14.396 28.896,14.401 C28.644,14.753 28.374,15.072 28.103,15.333 L27.984,15.489 C27.968,15.505 27.955,15.518 27.939,15.535 L16.443,29.777 L5.037,15.487 Z"/>
</svg>
