<svg
	xmlns="http://www.w3.org/2000/svg"
	xmlns:xlink="http://www.w3.org/1999/xlink"
	width="0.952cm" height="1.235cm">
	<path fill-rule="evenodd"  fill="rgb(255, 255, 255)"
		  d="M24.220,5.937 L23.199,5.937 L20.838,5.937 C20.190,2.562 17.155,-0.004 13.504,-0.004 C9.853,-0.004 6.817,2.562 6.169,5.937 L3.807,5.937 L0.019,5.937 L0.019,8.398 L0.019,31.308 C0.019,33.343 1.715,34.998 3.807,34.998 L23.199,34.998 C25.292,34.998 26.988,33.343 26.988,31.308 L26.988,8.398 L26.988,5.937 L24.220,5.937 ZM13.504,2.746 C15.586,2.746 17.332,4.096 17.922,5.937 L15.497,5.937 L9.084,5.937 C9.675,4.096 11.421,2.746 13.504,2.746 ZM24.462,31.308 C24.462,31.987 23.897,32.539 23.199,32.539 L3.807,32.539 C3.109,32.539 2.544,31.987 2.544,31.308 L2.544,8.398 L24.462,8.398 L24.462,31.308 Z"/>
</svg>
